<svg width="40" height="40" viewBox="0 0 40 40" fill="none" xmlns="http://www.w3.org/2000/svg">
<path d="M20 0C31.0463 0 40 8.95375 40 20C40 31.0463 31.0463 40 20 40C8.95375 40 0 31.0463 0 20C0 8.95375 8.95375 0 20 0ZM23.8663 8.75H20.8663L20.7962 8.855L17.9888 13.715L15.1113 18.6975L12.2525 23.6625L9.375 28.645H12.8125L15.6913 23.6625L18.5675 18.6975L21.4275 13.715L21.9025 12.925L22.1112 13.715L22.9888 16.995L22.0063 18.6975L19.13 23.6625L16.27 28.645H19.7075L22.585 23.6625L24.0763 21.0838L24.7788 23.6625L26.1112 28.645H29.1987L27.8662 23.6625L26.5325 18.6975L26.1825 17.4163L28.3225 13.715H25.2L25.0938 13.3462L24.0063 9.27625L23.8663 8.75Z" fill="black"/>
</svg>
