<svg width="118" height="28" viewBox="0 0 118 28" fill="none" xmlns="http://www.w3.org/2000/svg">
<path d="M19.046 21.5643C16.2666 21.5643 13.6614 21.5643 10.953 21.5643C11.6301 18.3306 11.3044 15.2921 8.7411 12.746C8.47348 12.4779 8.02853 12.3556 7.37077 12.0118C7.62871 15.295 6.80329 18.3102 8.42512 21.2351C5.64577 21.2351 3.00183 21.2351 0.228928 21.2351C0.31276 20.9525 0.403039 20.7078 0.461076 20.4573C0.683554 19.4755 1.05757 18.4937 1.08337 17.5062C1.17042 13.8763 1.22201 10.2406 1.11239 6.61359C1.06725 5.14241 0.59005 3.6829 0.293413 2.22046C0.235376 1.92914 0.116075 1.64656 0 1.27658C2.80192 1.27658 5.46198 1.27658 7.90601 1.27658C7.66096 3.21387 7.40946 5.1599 7.17409 7.10885C7.14184 7.38269 7.17409 7.66819 7.20955 7.94494C7.31273 8.70821 7.73834 8.88884 8.48961 8.51886C10.982 7.28656 12.333 3.66541 11.1368 1.28239C13.6582 1.28239 16.1506 1.28239 18.9364 1.28239C17.8369 2.5409 16.8889 3.72951 15.8217 4.82489C14.2934 6.39512 12.6877 7.90124 11.0948 9.41904C10.6563 9.83563 10.3984 10.2522 11.0658 10.6106C14.0935 12.2332 15.7475 14.7677 16.9212 17.6431C16.9405 17.6897 17.034 17.7101 17.1823 17.7917C17.1823 17.0022 17.1823 16.2564 17.1823 15.5106C18.6688 15.5718 20.0681 15.6708 21.4642 15.6767C23.7019 15.6883 24.0501 15.3999 24.6498 13.4888C25.7364 10.0308 26.8778 6.58738 27.9257 3.12064C28.1127 2.50012 27.9515 1.79513 27.9515 1.07556C30.0183 1.07556 32.0142 1.07556 33.9165 1.07556C33.7392 5.03464 35.9833 8.41689 37.0215 12.0672C37.6696 14.3424 38.4692 16.5856 39.3043 18.8113C39.6106 19.6299 40.2071 20.3611 40.852 21.4332C38.7368 21.4332 36.8635 21.4623 34.9967 21.3924C34.7806 21.3837 34.355 20.769 34.4259 20.5301C34.8677 19.0269 33.8166 17.882 33.3265 16.6205C33.2201 16.3467 32.572 16.1369 32.1464 16.0845C29.525 15.767 27.2873 18.0568 27.9612 20.3961C28.1643 21.0982 27.9096 21.4711 27.2422 21.4944C25.443 21.5555 23.6374 21.5148 21.6222 21.5148C22.1542 20.5214 22.5992 19.6911 23.1344 18.686C21.145 18.686 19.4103 18.686 17.5273 18.686C18.0078 19.5979 18.4753 20.4835 19.046 21.5643ZM31.1791 10.1736C31.0694 10.1794 30.963 10.1852 30.8534 10.191C30.6406 10.7679 30.4052 11.3389 30.2214 11.9215C29.4476 14.3686 29.4508 14.3686 32.3172 14.1967C32.3753 14.1938 32.4269 14.1152 32.5784 14.0016C32.1173 12.7489 31.6498 11.4612 31.1791 10.1736Z" fill="#00AAA4"/>
<path d="M94.201 14.2638C93.2885 13.9025 92.5759 13.5646 91.8182 13.3403C91.4216 13.2208 90.88 13.1771 90.5414 13.3374C90.3479 13.4306 90.3222 14.0249 90.4092 14.3512C90.9025 16.1923 92.3922 17.4858 94.301 17.716C94.301 16.6468 94.301 15.5835 94.301 14.4531C95.5552 14.5522 96.6902 14.7124 97.8284 14.7182C101.014 14.7299 101.169 14.6163 102.046 11.8982C103.029 8.85098 103.993 5.80083 104.912 2.73611C105.073 2.19716 105.025 1.58831 104.977 1.02023C104.928 0.428847 105.064 0.0646791 105.809 0.0588527C107.43 0.0471998 109.055 0.0355611 110.677 0.000602317C111.47 -0.0168771 111.516 0.347268 111.458 0.938654C111.393 1.59996 111.345 2.31952 111.554 2.94004C113.215 7.88088 114.927 12.8072 116.662 17.7276C116.861 18.2986 117.329 18.788 117.619 19.3386C117.797 19.6707 117.877 20.0436 118 20.399C117.655 20.4952 117.316 20.6641 116.968 20.6729C115.501 20.7166 114.031 20.7311 112.563 20.7253C111.528 20.7195 111.574 20.3699 111.49 19.4872C111.367 18.2258 111.038 16.842 110.294 15.8107C109.494 14.7037 106.228 15.5718 105.883 16.8828C105.625 17.8645 104.999 18.7764 105.422 19.9154C105.654 20.5389 104.935 20.8535 104.232 20.8593C102.765 20.8768 101.294 20.9001 99.8274 20.8855C99.5179 20.8826 98.9827 20.7603 98.9472 20.6117C98.873 20.3233 99.0246 19.9533 99.1761 19.6562C99.4502 19.123 99.7952 18.622 100.185 17.984C98.0927 17.984 96.3 17.984 94.4622 17.984C94.2332 19.394 94.0914 20.6525 95.8293 21.4828C96.903 21.9984 97.7477 22.884 98.7602 23.5191C100.408 24.5504 102.152 24.7631 103.99 23.8658C104.454 23.6385 104.996 23.5016 105.522 23.4259C105.815 23.3851 106.292 23.4725 106.418 23.6531C106.56 23.857 106.518 24.3028 106.357 24.5242C104.751 26.7266 102.352 28.5532 98.757 27.8452C97.2834 27.5539 95.7938 26.9713 94.5396 26.2138C92.9435 25.2496 91.3443 24.7193 89.4419 24.9145C88.9841 24.9611 88.5133 24.9437 88.0522 24.9262C87.0914 24.8941 86.8883 24.5329 87.1591 23.7056C87.4138 22.9306 87.6782 22.112 87.6718 21.3167C87.6234 15.3825 87.5267 9.4511 87.3913 3.51686C87.3751 2.8672 87.0914 2.203 86.8205 1.5854C86.511 0.889138 86.7528 0.411363 87.6008 0.396797C89.687 0.361839 91.7763 0.344349 93.8625 0.350176C94.762 0.353089 94.9394 0.734728 94.6202 1.50382C94.3622 2.12725 94.1301 2.80894 94.1301 3.46442C94.1301 6.70976 94.2107 9.95511 94.259 13.2004C94.259 13.4772 94.23 13.7539 94.201 14.2638ZM108.427 9.58803C108.327 9.58221 108.224 9.57638 108.124 9.56764C107.782 10.7125 107.443 11.8574 107.06 13.1422C108.014 13.1888 108.749 13.2237 109.681 13.2674C109.223 11.9303 108.826 10.7592 108.427 9.58803Z" fill="#00AAA4"/>
<path d="M53.4812 0.813402C52.7073 3.59263 54.5097 5.79503 55.0708 8.23924C55.2287 8.92968 55.6028 9.15982 56.4379 9.14525C57.6953 9.12486 58.956 9.32879 60.3103 9.44241C60.2716 9.47154 60.3812 9.42784 60.3812 9.38414C60.3812 7.19339 60.3747 5.00263 60.3489 2.81188C60.3457 2.65748 60.2039 2.49724 60.1071 2.35158C59.3365 1.1455 59.5525 0.758045 61.1421 0.71726C65.3144 0.612383 69.4866 0.557031 73.6589 0.460894C74.5778 0.440501 75.0099 0.752227 75.0002 1.61746C74.9873 3.11778 75.026 4.6181 75.0712 6.11841C75.0873 6.66902 74.968 7.10307 74.2715 7.17882C73.5847 7.25456 72.8689 7.38857 72.4885 6.61365C72.237 6.10383 71.9113 5.62606 71.6566 5.11916C70.8183 3.43531 69.3093 3.0566 67.4747 3.38288C67.1813 3.43532 66.7299 3.75869 66.7234 3.96553C66.6686 6.15045 66.6879 8.3383 66.6879 10.6135C68.9353 10.5553 70.6603 9.90852 72.3337 9.1103C72.6755 8.94715 72.9753 8.68789 73.3365 8.59466C73.6234 8.51892 74.0716 8.52474 74.2554 8.67914C74.4295 8.82189 74.4747 9.25888 74.365 9.48611C73.5847 11.1496 72.1725 12.2537 70.3443 12.9092C69.4866 13.2151 68.5871 13.4539 67.6875 13.6316C67.0233 13.7627 66.8169 14.0424 66.8395 14.6338C66.8943 16.0992 66.8621 17.5645 66.9265 19.0299C66.9427 19.3795 67.1361 19.7524 67.3457 20.0582C67.9196 20.9002 67.6972 21.4012 66.5977 21.4362C64.7437 21.4974 62.8897 21.5061 61.0325 21.5119C58.9109 21.5178 56.7861 21.5003 54.6645 21.4916C53.4812 21.4857 53.5328 21.1653 53.4554 20.1835C53.3586 18.9308 52.9814 17.5354 52.2043 16.5245C51.3499 15.4145 48.2159 16.3176 47.8257 17.6548C47.5388 18.6395 46.9455 19.5805 47.3356 20.6962C47.3937 20.8652 46.6295 21.4945 46.2039 21.5323C44.7078 21.6605 43.1956 21.643 41.6866 21.643C40.8225 21.643 40.4195 21.0983 40.987 20.6205C41.9801 19.7844 41.9543 18.6861 42.2831 17.6723C43.8179 12.9296 45.3688 8.18972 46.8681 3.43532C47.0358 2.89928 46.8584 2.28167 46.9745 1.72525C47.0422 1.39605 47.355 0.857099 47.5807 0.848359C49.4701 0.781355 51.3596 0.813402 53.4812 0.813402ZM56.4572 10.8408C56.3347 10.9631 56.2122 11.0826 56.0896 11.2049C57.0472 13.9463 57.9791 16.6935 58.998 19.4173C59.1173 19.7349 59.7202 19.9068 60.0975 20.1486C60.278 19.7961 60.6037 19.4465 60.6101 19.091C60.6424 17.3548 60.5972 15.6156 60.5585 13.8793C60.5521 13.6142 60.5231 13.2267 60.3393 13.1131C59.0657 12.3236 57.7534 11.5924 56.4572 10.8408ZM50.3665 10.3164C50.273 10.3164 50.1763 10.3164 50.0827 10.3193C49.741 11.4642 49.3992 12.6091 49.0155 13.8938C49.9731 13.8938 50.7147 13.8938 51.5917 13.8938C51.1661 12.6557 50.7663 11.4846 50.3665 10.3164Z" fill="#00AAA4"/>
<path d="M80.6626 0.35603C81.5879 0.35603 82.5165 0.341466 83.4419 0.358946C84.406 0.379338 84.6252 0.79011 84.2286 1.56794C83.9868 2.04571 83.7772 2.59339 83.7804 3.10903C83.8224 8.12851 83.8997 13.148 84.0158 18.1646C84.0287 18.753 84.2673 19.3648 84.5285 19.9154C84.9057 20.7136 84.6478 21.2031 83.6644 21.2234C81.8523 21.2642 80.037 21.2875 78.2218 21.2875C77.2061 21.2875 76.9224 20.7603 77.3705 19.9212C77.5769 19.5338 77.7349 19.0764 77.7284 18.6511C77.6736 13.4218 77.5898 8.19552 77.4834 2.96628C77.4737 2.54095 77.2803 2.09814 77.0804 1.70194C76.6418 0.830884 76.8514 0.446346 77.8864 0.417214C78.8118 0.393908 79.7404 0.411382 80.6658 0.411382C80.6625 0.396816 80.6626 0.376422 80.6626 0.35603Z" fill="#00AAA4"/>
</svg>
