<svg width="30" height="30" viewBox="0 0 30 30" fill="none" xmlns="http://www.w3.org/2000/svg">
<g clip-path="url(#clip0_612_6)">
<path d="M15 30C23.2843 30 30 23.2843 30 15C30 6.71573 23.2843 0 15 0C6.71573 0 0 6.71573 0 15C0 23.2843 6.71573 30 15 30Z" fill="#FF4500"/>
<path d="M24.9785 15.143C24.9785 13.9271 23.9952 12.9613 22.7968 12.9613C22.2308 12.9605 21.6862 13.1784 21.2769 13.5694C19.7748 12.4963 17.7182 11.799 15.4293 11.7096L16.4305 7.02436L19.6852 7.72163C19.7211 8.54428 20.4005 9.20604 21.2412 9.20604C22.0995 9.20604 22.7968 8.50877 22.7968 7.65002C22.7968 6.79174 22.0996 6.09436 21.2412 6.09436C20.6332 6.09436 20.0965 6.45202 19.8462 6.97069L16.2162 6.2017C16.1088 6.18366 16.0015 6.2017 15.9299 6.25538C15.8405 6.30905 15.7869 6.39834 15.7692 6.50569L14.6602 11.7273C12.3355 11.799 10.2431 12.4963 8.7232 13.5873C8.31382 13.1963 7.76927 12.9785 7.20316 12.9794C5.98711 12.9794 5.02148 13.9627 5.02148 15.161C5.02148 16.0551 5.55785 16.806 6.30914 17.1461C6.27266 17.3647 6.2547 17.5861 6.25547 17.8077C6.25547 21.1694 10.1719 23.9057 15.0001 23.9057C19.8285 23.9057 23.7449 21.1874 23.7449 17.8077C23.7448 17.5861 23.7268 17.3648 23.6912 17.1461C24.4421 16.806 24.9785 16.037 24.9785 15.143ZM9.99281 16.6987C9.99281 15.8404 10.6901 15.143 11.5488 15.143C12.4071 15.143 13.1045 15.8403 13.1045 16.6987C13.1045 17.5571 12.4072 18.2547 11.5488 18.2547C10.6902 18.2723 9.99281 17.5571 9.99281 16.6987ZM18.7018 20.8296C17.6289 21.9027 15.5902 21.9743 15.0001 21.9743C14.3921 21.9743 12.3536 21.8847 11.2982 20.8296C11.1375 20.6687 11.1375 20.4183 11.2982 20.2574C11.4592 20.0967 11.7095 20.0967 11.8705 20.2574C12.5502 20.9371 13.9808 21.1694 15.0001 21.1694C16.0195 21.1694 17.4679 20.937 18.1295 20.2574C18.2905 20.0967 18.5408 20.0967 18.7018 20.2574C18.8448 20.4183 18.8448 20.6687 18.7018 20.8296ZM18.4155 18.2724C17.5571 18.2724 16.8599 17.5751 16.8599 16.7167C16.8599 15.8583 17.5571 15.161 18.4155 15.161C19.2742 15.161 19.9714 15.8583 19.9714 16.7167C19.9714 17.5569 19.2742 18.2724 18.4155 18.2724Z" fill="white"/>
</g>
<defs>
<clipPath id="clip0_612_6">
<rect width="30" height="30" fill="white"/>
</clipPath>
</defs>
</svg>
