<svg width="30" height="30" viewBox="0 0 30 30" fill="none" xmlns="http://www.w3.org/2000/svg">
<g clip-path="url(#clip0_612_9)">
<path d="M15 0C11.0227 0 7.20469 1.58133 4.39453 4.39336C1.58148 7.20651 0.000779226 11.0217 0 15C0 18.9766 1.58203 22.7946 4.39453 25.6066C7.20469 28.4187 11.0227 30 15 30C18.9773 30 22.7953 28.4187 25.6055 25.6066C28.418 22.7946 30 18.9766 30 15C30 11.0234 28.418 7.20539 25.6055 4.39336C22.7953 1.58133 18.9773 0 15 0Z" fill="url(#paint0_linear_612_9)"/>
<path d="M6.78956 14.8416C11.163 12.9366 14.0786 11.6805 15.5364 11.0737C19.7036 9.34101 20.5685 9.04007 21.1333 9.02987C21.2575 9.02788 21.5341 9.05858 21.7146 9.20448C21.8646 9.32753 21.9067 9.49394 21.9278 9.61077C21.9466 9.72749 21.9724 9.99351 21.9513 10.2012C21.7263 12.573 20.7489 18.3288 20.2521 20.9855C20.0435 22.1095 19.6286 22.4864 19.2278 22.5232C18.356 22.6033 17.695 21.9476 16.8513 21.3947C15.5317 20.5291 14.7864 19.9905 13.5044 19.1461C12.0232 18.1701 12.9841 17.6337 13.8278 16.7571C14.0482 16.5276 17.8872 13.0366 17.9599 12.72C17.9692 12.6804 17.9786 12.5327 17.8896 12.4549C17.8028 12.3769 17.6739 12.4036 17.5802 12.4247C17.4466 12.4547 15.3396 13.8487 11.2521 16.6066C10.6544 17.0177 10.113 17.2181 9.6255 17.2076C9.09112 17.1961 8.05987 16.9048 7.29347 16.6559C6.35597 16.3505 5.60831 16.189 5.67394 15.6703C5.70675 15.4003 6.0794 15.124 6.78956 14.8416V14.8416Z" fill="white"/>
</g>
<defs>
<linearGradient id="paint0_linear_612_9" x1="15" y1="0" x2="15" y2="30" gradientUnits="userSpaceOnUse">
<stop stop-color="#2AABEE"/>
<stop offset="1" stop-color="#229ED9"/>
</linearGradient>
<clipPath id="clip0_612_9">
<rect width="30" height="30" fill="white"/>
</clipPath>
</defs>
</svg>
