<svg width="39" height="30" viewBox="0 0 39 30" fill="none" xmlns="http://www.w3.org/2000/svg">
<g clip-path="url(#clip0_612_4)">
<path d="M32.6958 2.50206C30.1648 1.31785 27.4872 0.476412 24.7338 0C24.3909 0.62005 23.9902 1.45402 23.7138 2.11749C20.7452 1.67111 17.8038 1.67111 14.8898 2.11749C14.6136 1.45417 14.2038 0.62005 13.8577 0C11.1016 0.476631 8.42178 1.32021 5.88962 2.50824C0.850831 10.1227 -0.515149 17.5477 0.167765 24.8677C3.50983 27.3635 6.74862 28.8796 9.93284 29.8717C10.7242 28.7834 11.4237 27.6313 12.0242 26.4271C10.881 25.9919 9.77881 25.4555 8.73088 24.8243C9.00665 24.6199 9.27593 24.4069 9.53832 24.1856C15.8884 27.1557 22.7881 27.1557 29.0624 24.1856C29.326 24.4054 29.5952 24.6184 29.8697 24.8243C28.8201 25.4571 27.7159 25.9946 26.5703 26.4303C27.1742 27.6393 27.8725 28.7926 28.6617 29.8747C31.849 28.8828 35.0908 27.3666 38.4328 24.8677C39.2342 16.3821 37.064 9.02503 32.6958 2.50191V2.50206ZM12.8894 20.3661C10.9831 20.3661 9.41983 18.5864 9.41983 16.4193C9.41983 14.2523 10.9498 12.4696 12.8894 12.4696C14.8292 12.4696 16.3923 14.2491 16.359 16.4193C16.362 18.5864 14.8292 20.3661 12.8894 20.3661ZM25.7112 20.3661C23.8049 20.3661 22.2417 18.5864 22.2417 16.4193C22.2417 14.2523 23.7716 12.4696 25.7112 12.4696C27.6509 12.4696 29.2141 14.2491 29.1808 16.4193C29.1808 18.5864 27.6509 20.3661 25.7112 20.3661Z" fill="#5865F2"/>
</g>
<defs>
<clipPath id="clip0_612_4">
<rect width="38.6" height="30" fill="white"/>
</clipPath>
</defs>
</svg>
