<svg width="24" height="24" viewBox="0 0 24 24" fill="none" xmlns="http://www.w3.org/2000/svg">
<path d="M22.5 0H0.9375C0.418945 0 0 0.418945 0 0.9375V22.5C0 23.0186 0.418945 23.4375 0.9375 23.4375H22.5C23.0186 23.4375 23.4375 23.0186 23.4375 22.5V0.9375C23.4375 0.418945 23.0186 0 22.5 0ZM19.2188 6.02637L18.0234 7.17187C17.918 7.25098 17.8682 7.37988 17.8887 7.50586V15.9346C17.8682 16.0635 17.918 16.1924 18.0234 16.2686L19.1953 17.4141V17.6689H13.3125V17.4258L14.5225 16.251C14.6426 16.1309 14.6426 16.0957 14.6426 15.917V9.09668L11.2734 17.6396H10.8193L6.89941 9.09668V14.8242C6.86426 15.0645 6.94922 15.3076 7.11914 15.4805L8.69531 17.3877V17.6426H4.21875V17.3877L5.79492 15.4805C5.87797 15.3947 5.93977 15.2907 5.97538 15.1767C6.01099 15.0627 6.01942 14.942 6 14.8242V8.20312C6.02051 8.01855 5.95019 7.83984 5.80957 7.71387L4.40918 6.02637V5.77148H8.75977L12.1172 13.1396L15.0732 5.77734H19.2188V6.02637Z" fill="black"/>
</svg>
